<svg xmlns="http://www.w3.org/2000/svg" xmlns:xlink="http://www.w3.org/1999/xlink" xmlns:inkscape="http://www.inkscape.org/namespaces/inkscape" version="1.1" width="284" height="126" viewBox="0 0 284 126">
<defs>
<path id="font_1_121" d="M.45999146 .31976319C.45999146 .39982606 .45498658 .47988893 .41999818 .5539398 .37399293 .65000918 .2919922 .6660156 .25 .6660156 .18998719 .6660156 .116989139 .64001467 .07598877 .54693606 .04399109 .47789 .038986207 .39982606 .038986207 .31976319 .038986207 .24472046 .042999269 .15464783 .083999637 .07859802 .1269989-.0024719239 .19999695-.022460938 .24899292-.022460938 .30299378-.022460938 .3789978-.0014648438 .4229889 .09359741 .45498658 .16265869 .45999146 .2407074 .45999146 .31976319M.3769989 .3317871C.3769989 .25672914 .3769989 .18867493 .3659973 .12461853 .35099793 .029556275 .2939911-.00047302247 .24899292-.00047302247 .20999146-.00047302247 .15098572 .024551392 .1329956 .12062073 .12199402 .18066406 .12199402 .2727356 .12199402 .3317871 .12199402 .39582826 .12199402 .46188355 .12998963 .5159149 .14898682 .63500979 .22399903 .64401248 .24899292 .64401248 .28199769 .64401248 .34799195 .6259918 .36698915 .52693179 .3769989 .47088624 .3769989 .39482118 .3769989 .3317871Z"/>
<path id="font_1_82" d="M.4189911 0V.0309906H.3869934C.29699708 .0309906 .2939911 .041992189 .2939911 .07902527V.64012148C.2939911 .6640167 .2939911 .6660156 .2709961 .6660156 .20899964 .60227969 .12098694 .60227969 .08898926 .60227969V.57128909C.10899353 .57128909 .16799927 .57128909 .21998596 .5972748V.07902527C.21998596 .042999269 .21699524 .0309906 .1269989 .0309906H.09498596V0C.12998963 .0029907227 .21699524 .0029907227 .25698854 .0029907227 .29699708 .0029907227 .38398744 .0029907227 .4189911 0Z"/>
<path id="font_1_107" d="M.44898988 .17396546H.42399598C.4189911 .14398194 .4119873 .099990848 .4019928 .084991458 .394989 .07699585 .32899476 .07699585 .30699159 .07699585H.1269989L.23298645 .17996216C.3889923 .31803895 .44898988 .37210084 .44898988 .47216798 .44898988 .5860901 .35899354 .6660156 .23699951 .6660156 .12399292 .6660156 .049987794 .57411196 .049987794 .48516847 .049987794 .4291687 .099990848 .4291687 .102996829 .4291687 .11999512 .4291687 .15499878 .44117738 .15499878 .48217774 .15499878 .5081787 .13699341 .5341797 .101989749 .5341797 .09399414 .5341797 .09199524 .5341797 .08898926 .5331726 .11199951 .59806826 .1659851 .63500979 .22399903 .63500979 .31498719 .63500979 .35798646 .5541382 .35798646 .47216798 .35798646 .39196778 .30799867 .31297303 .25299073 .25097657L.06098938 .036987306C.049987794 .025985718 .049987794 .023986817 .049987794 0H.42099L.44898988 .17396546Z"/>
<path id="font_1_84" d="M.5209961 .21636963C.5209961 .34336854 .42399598 .4423828 .31199647 .4423828 .23399353 .4423828 .19198609 .39837647 .17199707 .3763733V.4423828L.027999878 .43066407V.3996582C.09899902 .3996582 .10598755 .3936615 .10598755 .34973146V-.117996219C.10598755-.16308594 .09498596-.16308594 .027999878-.16308594V-.1940918L.13999939-.19110108 .25299073-.1940918V-.16308594C.18598938-.16308594 .1749878-.16308594 .1749878-.117996219V.050186159 .059173585C.17999268 .04319763 .22200012-.0107421879 .2979889-.0107421879 .4169922-.0107421879 .5209961 .087127689 .5209961 .21594239V.21636963M.43798829 .21594239C.43798829 .09512329 .36799623 .011245728 .2939911 .011245728 .2539978 .011245728 .21598816 .031219483 .18899536 .07215881 .1749878 .09312439 .1749878 .09411621 .1749878 .114089969V.33674623C.20399475 .38838197 .25299073 .41737367 .3039856 .41737367 .3769989 .41737367 .43798829 .32937623 .43798829 .21636963V.21594239Z"/>
<path id="font_1_64" d="M.27598573 .18710327V.24511719H.010986328V.18710327H.27598573Z"/>
</defs>
<path transform="matrix(1.00008,0,0,-1.00005,15.406313,62.75119)" stroke-width=".3985" stroke-linecap="butt" stroke-miterlimit="10" stroke-linejoin="miter" fill="none" stroke="#000000" d="M13.63652 0C13.63652 7.53133 7.53133 13.63652 0 13.63652-7.53133 13.63652-13.63652 7.53133-13.63652 0-13.63652-7.53133-7.53133-13.63652 0-13.63652 7.53133-13.63652 13.63652-7.53133 13.63652 0ZM0 0"/>
<use data-text="0" xlink:href="#font_1_121" transform="matrix(10.909972,0,0,-10.909644,12.679094,66.264369)"/>
<path transform="matrix(1.00008,0,0,-1.00005,15.406313,62.75119)" stroke-width=".3985" stroke-linecap="butt" stroke-miterlimit="10" stroke-linejoin="miter" fill="none" stroke="#000000" d="M61.55006 47.91354C61.55006 55.44487 55.44487 61.55006 47.91354 61.55006 40.3822 61.55006 34.27702 55.44487 34.27702 47.91354 34.27702 40.3822 40.3822 34.27702 47.91354 34.27702 55.44487 34.27702 61.55006 40.3822 61.55006 47.91354ZM47.91354 47.91354"/>
<use data-text="1" xlink:href="#font_1_82" transform="matrix(10.909972,0,0,-10.909644,60.595926,18.46798)"/>
<path transform="matrix(1.00008,0,0,-1.00005,15.406313,62.75119)" stroke-width=".3985" stroke-linecap="butt" stroke-miterlimit="10" stroke-linejoin="miter" fill="none" stroke="#000000" d="M61.55006-47.91354C61.55006-40.3822 55.44487-34.27702 47.91354-34.27702 40.3822-34.27702 34.27702-40.3822 34.27702-47.91354 34.27702-55.44487 40.3822-61.55006 47.91354-61.55006 55.44487-61.55006 61.55006-55.44487 61.55006-47.91354ZM47.91354-47.91354"/>
<use data-text="2" xlink:href="#font_1_107" transform="matrix(10.909972,0,0,-10.909644,60.595926,114.29977)"/>
<path transform="matrix(1.00008,0,0,-1.00005,15.406313,62.75119)" stroke-width=".3985" stroke-linecap="butt" stroke-miterlimit="10" stroke-linejoin="miter" fill="none" stroke="#000000" d="M3.58054 13.36433C8.01875 29.92787 17.98567 39.89479 34.10654 44.21442"/>
<path transform="matrix(.96600726,-.25880293,-.2588107,-.9659782,49.51558,18.534562)" stroke-width=".31879" stroke-linecap="round" stroke-linejoin="round" fill="none" stroke="#000000" d="M-1.19551 1.59401C-1.09587 .99626 0 .09961 .29886 0 0-.09961-1.09587-.99626-1.19551-1.59401"/>
<use data-text="1" xlink:href="#font_1_82" transform="matrix(10.909972,0,0,-10.909644,27.198258,25.518334)"/>
<path transform="matrix(1.00008,0,0,-1.00005,15.406313,62.75119)" stroke-width=".3985" stroke-linecap="butt" stroke-miterlimit="10" stroke-linejoin="miter" fill="none" stroke="#000000" d="M54.83122 35.93158C68.8435 11.66151 68.8435-11.66151 55.06035-35.53473"/>
<path transform="matrix(-.50001999,.8660533,.8660793,.50000497,70.47108,98.287677)" stroke-width=".31879" stroke-linecap="round" stroke-linejoin="round" fill="none" stroke="#000000" d="M-1.19551 1.59401C-1.09587 .99626 0 .09961 .29886 0 0-.09961-1.09587-.99626-1.19551-1.59401"/>
<use data-text="1" xlink:href="#font_1_82" transform="matrix(10.909972,0,0,-10.909644,84.587848,66.38437)"/>
<path transform="matrix(1.00008,0,0,-1.00005,15.406313,62.75119)" stroke-width=".3985" stroke-linecap="butt" stroke-miterlimit="10" stroke-linejoin="miter" fill="none" stroke="#000000" d="M34.5492-44.33301C17.98567-39.89479 8.01875-29.92787 3.69913-13.80699"/>
<path transform="matrix(-.2588107,-.9659782,-.96600726,.25880293,19.10574,76.55887)" stroke-width=".31879" stroke-linecap="round" stroke-linejoin="round" fill="none" stroke="#000000" d="M-1.19551 1.59401C-1.09587 .99626 0 .09961 .29886 0 0-.09961-1.09587-.99626-1.19551-1.59401"/>
<use data-text="1" xlink:href="#font_1_82" transform="matrix(10.909972,0,0,-10.909644,27.198258,107.24941)"/>
<path transform="matrix(1.00008,0,0,-1.00005,15.406313,62.75119)" stroke-width=".3985" stroke-linecap="butt" stroke-miterlimit="10" stroke-linejoin="miter" fill="none" stroke="#000000" d="M154.69536 0C154.69536 7.53133 148.59017 13.63652 141.05884 13.63652 133.5275 13.63652 127.4223 7.53133 127.4223 0 127.4223-7.53133 133.5275-13.63652 141.05884-13.63652 148.59017-13.63652 154.69536-7.53133 154.69536 0ZM141.05884 0"/>
<use data-text="0" xlink:href="#font_1_121" transform="matrix(10.909972,0,0,-10.909644,153.74938,66.264369)"/>
<path transform="matrix(1.00008,0,0,-1.00005,15.406313,62.75119)" stroke-width=".3985" stroke-linecap="butt" stroke-miterlimit="10" stroke-linejoin="miter" fill="none" stroke="#000000" d="M210.71372 0C210.71372 7.53133 204.60852 13.63652 197.0772 13.63652 189.54586 13.63652 183.44068 7.53133 183.44068 0 183.44068-7.53133 189.54586-13.63652 197.0772-13.63652 204.60852-13.63652 210.71372-7.53133 210.71372 0ZM197.0772 0"/>
<use data-text="1" xlink:href="#font_1_82" transform="matrix(10.909972,0,0,-10.909644,209.77187,66.38437)"/>
<path transform="matrix(1.00008,0,0,-1.00005,15.406313,62.75119)" stroke-width=".3985" stroke-linecap="butt" stroke-miterlimit="10" stroke-linejoin="miter" fill="none" stroke="#000000" d="M266.7321 0C266.7321 7.53133 260.6269 13.63652 253.09555 13.63652 245.56423 13.63652 239.45903 7.53133 239.45903 0 239.45903-7.53133 245.56423-13.63652 253.09555-13.63652 260.6269-13.63652 266.7321-7.53133 266.7321 0ZM253.09555 0"/>
<use data-text="2" xlink:href="#font_1_107" transform="matrix(10.909972,0,0,-10.909644,265.79435,66.38437)"/>
<path transform="matrix(1.00008,0,0,-1.00005,15.406313,62.75119)" stroke-width=".3985" stroke-linecap="butt" stroke-miterlimit="10" stroke-linejoin="miter" fill="none" stroke="#000000" d="M153.04079 6.91766C163.86632 13.16779 174.26972 13.16779 184.69838 7.14679"/>
<path transform="matrix(.8660793,.50000497,.50001999,-.8660533,200.11945,55.604036)" stroke-width=".31879" stroke-linecap="round" stroke-linejoin="round" fill="none" stroke="#000000" d="M-1.19551 1.59401C-1.09587 .99626 0 .09961 .29886 0 0-.09961-1.09587-.99626-1.19551-1.59401"/>
<use data-text="1" xlink:href="#font_1_82" transform="matrix(10.909972,0,0,-10.909644,181.76062,47.310419)"/>
<path transform="matrix(1.00008,0,0,-1.00005,15.406313,62.75119)" stroke-width=".3985" stroke-linecap="butt" stroke-miterlimit="10" stroke-linejoin="miter" fill="none" stroke="#000000" d="M209.05915 6.91766C219.88468 13.16779 230.28807 13.16779 240.71674 7.14679"/>
<path transform="matrix(.8660793,.50000497,.50001999,-.8660533,256.1423,55.604036)" stroke-width=".31879" stroke-linecap="round" stroke-linejoin="round" fill="none" stroke="#000000" d="M-1.19551 1.59401C-1.09587 .99626 0 .09961 .29886 0 0-.09961-1.09587-.99626-1.19551-1.59401"/>
<use data-text="p" xlink:href="#font_1_84" transform="matrix(10.909972,0,0,-10.909644,237.47808,45.193315)"/>
<path transform="matrix(1.00008,0,0,-1.00005,15.406313,62.75119)" stroke-width=".3985" stroke-linecap="butt" stroke-miterlimit="10" stroke-linejoin="miter" fill="none" stroke="#000000" d="M241.1136-6.91766C230.28807-13.16779 219.88468-13.16779 209.45601-7.14679"/>
<path transform="matrix(-.8660793,-.50000497,-.50001999,.8660533,224.87909,69.898349)" stroke-width=".31879" stroke-linecap="round" stroke-linejoin="round" fill="none" stroke="#000000" d="M-1.19551 1.59401C-1.09587 .99626 0 .09961 .29886 0 0-.09961-1.09587-.99626-1.19551-1.59401"/>
<use data-text="1" xlink:href="#font_1_82" transform="matrix(10.909972,0,0,-10.909644,237.7831,85.45833)"/>
<path transform="matrix(1.00008,0,0,-1.00005,15.406313,62.75119)" stroke-width=".3985" stroke-linecap="butt" stroke-miterlimit="10" stroke-linejoin="miter" fill="none" stroke="#000000" d="M185.09523-6.91766C174.26972-13.16779 163.86632-13.16779 153.43766-7.14679"/>
<path transform="matrix(-.8660793,-.50000497,-.50001999,.8660533,168.85625,69.898349)" stroke-width=".31879" stroke-linecap="round" stroke-linejoin="round" fill="none" stroke="#000000" d="M-1.19551 1.59401C-1.09587 .99626 0 .09961 .29886 0 0-.09961-1.09587-.99626-1.19551-1.59401"/>
<use data-text="1" xlink:href="#font_1_82" transform="matrix(10.909972,0,0,-10.909644,176.91124,85.45833)"/>
<use data-text="-" xlink:href="#font_1_64" transform="matrix(10.909972,0,0,-10.909644,182.36623,85.45833)"/>
<use data-text="p" xlink:href="#font_1_84" transform="matrix(10.909972,0,0,-10.909644,185.99925,85.45833)"/>
</svg>
