<svg xmlns="http://www.w3.org/2000/svg" version="1.1" xmlns:xlink="http://www.w3.org/1999/xlink" xmlns:svgjs="http://svgjs.dev/svgjs" width="512" height="512"><svg width="512" height="512" version="1.1" id="SvgjsSvg1049" sodipodi:docname="cpgem3.svg" inkscape:version="1.2.2 (b0a8486541, 2022-12-01)" inkscape:export-filename="cpgem3.png" inkscape:export-xdpi="96" inkscape:export-ydpi="96" xmlns:inkscape="http://www.inkscape.org/namespaces/inkscape" xmlns:sodipodi="http://sodipodi.sourceforge.net/DTD/sodipodi-0.dtd" xmlns:xlink="http://www.w3.org/1999/xlink" xmlns="http://www.w3.org/2000/svg" xmlns:svg="http://www.w3.org/2000/svg">
  <defs id="SvgjsDefs1048">
    <linearGradient inkscape:collect="always" id="SvgjsLinearGradient1047">
      <stop style="stop-color:#ffe680;stop-opacity:0;" offset="0" id="SvgjsStop1046"></stop>
      <stop style="stop-color:#ffe680;stop-opacity:0.71315503;" offset="1" id="SvgjsStop1045"></stop>
    </linearGradient>
    <linearGradient inkscape:collect="always" xlink:href="#linearGradient8932" id="SvgjsLinearGradient1044" x1="200.18669" y1="231.6105" x2="447.04095" y2="231.6105" gradientUnits="userSpaceOnUse"></linearGradient>
  </defs>
  <sodipodi:namedview id="SvgjsSodipodi:namedview1043" pagecolor="#ffffff" bordercolor="#000000" borderopacity="0.25" inkscape:showpageshadow="2" inkscape:pageopacity="0.0" inkscape:pagecheckerboard="0" inkscape:deskcolor="#d1d1d1" showgrid="false" inkscape:zoom="1.7382812" inkscape:cx="128.86293" inkscape:cy="256.00001" inkscape:window-width="1864" inkscape:window-height="1054" inkscape:window-x="56" inkscape:window-y="0" inkscape:window-maximized="1" inkscape:current-layer="svg7835"></sodipodi:namedview>
  <path fill="#1B4763" d="M289.742 176.068L564.649 175.959L671.737 175.912C690.588 175.888 709.611 175.335 728.446 175.935C731.055 176.018 734.646 175.755 736.734 177.512L863.965 282.381L898.536 310.939C904.05 315.55 910.003 319.995 915.087 325.061C915.548 332.142 915.18 339.462 915.168 346.566L915.166 386.376C915.321 440.686 914.452 495.063 915.415 549.361C911.633 552.696 907.413 555.631 903.441 558.742Q887.955 570.848 872.148 582.532L811.06 628.821L640.109 758.593C616.956 776.262 593.212 793.167 570.028 810.803L534.08 837.64C528.085 842.125 522.316 847.319 516.042 851.391C514.855 852.161 513.402 852.623 511.987 852.697C509.28 852.837 507.43 851.284 505.403 849.732L214.871 629.671L145.959 577.472C133.863 568.372 120.575 559.722 109.474 549.461L109.323 395.653C109.328 372.164 110.182 348.396 109.216 324.955C118.645 315.211 130.482 306.926 140.925 298.215L219.288 233.903C234.177 221.744 249.228 209.688 263.976 197.364C271.816 190.813 281.495 181.377 289.742 176.068Z" id="SvgjsPath1042" style="fill:#214478" transform="matrix(0.5 0 0 0.5 -6.10352e-05 0)"></path>
  <path fill="#9FC5BE" d="M511.668 200.302C516.295 203.198 555.768 259.944 562.129 268.689C573.986 284.99 586.526 301.028 597.854 317.689C569.893 318.46 541.729 317.729 513.75 317.671L426.891 317.574C429.781 312.666 433.53 308.026 436.847 303.385L456.838 275.609C475.082 250.486 493.12 225.192 511.668 200.302Z" id="SvgjsPath1041" transform="matrix(0.5 0 0 0.5 -6.10352e-05 0)"></path>
  <path fill="#9FC5BE" d="M536.305 196.979L654.164 197.271C673.093 197.244 692.553 198.17 711.422 196.966Q685.737 231.126 661.367 266.237C649.107 283.712 635.509 300.642 624.015 318.596C615.838 306.685 607.172 295.21 598.723 283.5L536.305 196.979Z" id="SvgjsPath1040" transform="matrix(0.5 0 0 0.5 -6.10352e-05 0)"></path>
  <path fill="#9FC5BE" d="M312.984 196.897C342.288 197.746 371.66 197.269 400.975 197.286C429.888 197.303 458.861 197.827 487.763 197.147C482.964 204.456 477.484 211.504 472.384 218.618Q454.956 242.555 437.876 266.742C430.991 276.67 423.818 286.341 416.778 296.154C411.412 303.633 406.301 311.781 399.904 318.406C396.526 314.249 393.687 309.549 390.524 305.21L365.884 271.073C348.195 246.402 330.098 221.967 312.984 196.897Z" id="SvgjsPath1039" transform="matrix(0.5 0 0 0.5 -6.10352e-05 0)"></path>
  <path fill="#E7B164" transform="matrix(0.5 0 0 0.5 -6.10352e-05 0)" d="M447.555 609.962L574.48 609.845L526.771 758.155Q519.378 781.907 512.483 805.808C506.479 789.194 501.649 772.13 496.034 755.38L447.555 609.962Z" id="SvgjsPath1038" style="fill:#9fc5be;fill-opacity:1"></path>
  <path fill="#9FC5BE" d="M290.5 202.41C294.359 205.121 317.326 239.65 322.948 247.491C339.728 270.894 357.097 293.897 373.62 317.483L234.75 317.506L151.046 317.541C162.536 306.463 176.852 295.984 189.344 285.866L249.074 236.933C262.963 225.585 277.325 214.588 290.5 202.41Z" id="SvgjsPath1037" transform="matrix(0.5 0 0 0.5 -6.10352e-05 0)"></path>
  <path fill="#9FC5BE" d="M734.124 201.334C742.704 210.85 757.599 221.29 767.774 229.69L828.265 279.477C843.431 291.736 859.887 304.036 873.944 317.499C845.724 317.876 817.473 317.63 789.25 317.648L703.571 317.664C685.612 317.679 667.575 317.389 649.629 318.016C654.247 310.993 659.471 304.246 664.423 297.447L687.35 265.681L716.799 225.069C722.534 217.159 728.073 209.003 734.124 201.334Z" id="SvgjsPath1036" transform="matrix(0.5 0 0 0.5 -6.10352e-05 0)"></path>
  <path fill="#E7B164" transform="matrix(0.5 0 0 0.5 -6.10352e-05 0)" d="M224.801 609.735C247.195 610.788 269.816 610.24 292.244 610.288L425.13 610.052C430.586 629.994 437.677 649.578 444.172 669.201L478.957 774.41C483.057 787.023 487.88 799.558 491.421 812.324C486.347 809.429 477.444 801.499 472.37 797.626Q448.092 779.296 424.037 760.674Q361.495 712.846 298.325 665.851C280.96 653.02 264.08 639.563 246.811 626.611C242.484 623.366 227.821 613.818 225.208 610.766C224.968 610.485 224.937 610.079 224.801 609.735Z" id="SvgjsPath1035" style="fill:#9fc5be;fill-opacity:1"></path>
  <path fill="#E7B164" transform="matrix(0.5 0 0 0.5 -6.10352e-05 0)" d="M596.891 610.09L717.473 610C745.213 610.002 773.04 610.456 800.768 609.837C796.681 613.134 792.272 616.08 788.088 619.261Q773.34 630.658 758.402 641.807L702.792 684.23C685.402 697.358 667.81 710.187 650.648 723.616L571.431 782.605L549.06 799.23C543.899 803.064 538.504 806.76 533.786 811.136C537.662 800.242 540.456 788.857 543.996 777.831L581.378 659.641C586.589 643.174 591.133 626.365 596.891 610.09Z" id="SvgjsPath1034" style="fill:#9fc5be;fill-opacity:1"></path>
  <path fill="#FEFEFE" d="M131.07 338.017C211.233 339.206 291.523 338.347 371.699 338.345L893.762 338.26L894.082 539.735L866.749 560.12Q848.149 574.572 829.099 588.425L194.932 588.404C174.69 570.588 151.373 556.265 130.927 538.751C130.564 515.785 130.938 492.779 130.954 469.81L131.07 338.017Z" id="SvgjsPath1033" transform="matrix(0.5 0 0 0.5 -6.10352e-05 0)"></path>
  <path style="fill:url(#linearGradient8936);fill-opacity:1" d="m 446.88094,169.13 -246.69425,-0.1215 18.76861,125.204 h 195.59414 l 32.4915,-24.345 z" id="SvgjsPath1032"></path>
  <path fill="#25817D" d="M741.81 360.737L744.261 360.679C744.553 360.85 744.902 360.95 745.138 361.192C745.909 361.983 783.555 459.763 786.573 468.411C800.882 432.877 814.134 396.853 827.741 361.043L858.989 360.966C858.824 421.112 859.688 481.282 859.022 541.424C847.394 549.946 835.438 558.051 824.285 567.194C823.726 546.221 824.255 525.115 824.285 504.125C824.219 487.944 824.449 471.706 823.895 455.535Q810.301 491.171 797.608 527.137L775.393 526.969C772.845 519.391 769.623 511.95 766.825 504.446Q757.728 480.542 749.59 456.294C749.21 468.755 749.493 481.307 749.481 493.778L749.507 565.552C737.745 565.504 725.935 565.281 714.182 565.757L714.095 360.924Q727.954 361.004 741.81 360.737Z" id="SvgjsPath1031" transform="matrix(0.5 0 0 0.5 -6.10352e-05 0)" style="fill:#784421" inkscape:label="M"></path>
  <path fill="#25817D" d="M587.535 361.264C602.395 360.974 617.298 361.17 632.163 361.147C649.246 361.121 666.362 360.915 683.44 361.289L683.496 395.893L623.986 395.732L623.992 443.684C641.82 443.877 659.667 443.682 677.497 443.651L677.367 478.134L623.961 478.026C623.734 489.417 623.937 500.854 623.936 512.25L623.972 530.566L683.828 530.484L683.878 565.478L587.56 565.481L587.7 416.402C587.693 398.035 587.214 379.625 587.535 361.264Z" id="SvgjsPath1030" transform="matrix(0.5,0,0,0.5,-6.10352e-5,0)" inkscape:label="E"></path>
  <path fill="#25817D" d="M489.231 358.162Q492.059 357.859 494.902 357.801Q497.746 357.742 500.583 357.929Q503.421 358.115 506.233 358.545Q509.044 358.974 511.808 359.644C531.551 364.541 544.654 378.35 554.831 395.284C544.284 402.052 534.427 410.188 524.343 417.638C521.509 412.453 518.609 407.145 514.87 402.547C510.571 397.26 504.82 393.129 497.835 392.608C492.31 392.196 487.155 394.266 483.011 397.854C471.287 408.009 468.49 427.643 467.395 442.176C465.777 463.657 464.983 508.698 479.463 525.221C483.609 529.951 488.962 533.065 495.325 533.326C501.197 533.567 507.232 531.727 511.541 527.65C522.795 517.002 523.138 497.996 523.479 483.574L493.753 483.667L493.76 452.077L510.548 451.987L558.661 451.932C558.31 480.958 562.475 517.436 544.969 542.377C535.493 555.877 522.177 564.826 505.827 567.628Q504.332 567.884 502.826 568.066Q501.321 568.248 499.808 568.357Q498.295 568.466 496.779 568.501Q495.263 568.536 493.747 568.498Q492.231 568.459 490.718 568.346Q489.206 568.234 487.701 568.048Q486.196 567.862 484.701 567.603Q483.207 567.344 481.727 567.012Q480.247 566.681 478.785 566.277Q477.323 565.874 475.882 565.4Q474.442 564.926 473.026 564.383Q471.61 563.839 470.222 563.228Q468.835 562.616 467.478 561.937Q466.122 561.258 464.8 560.514Q463.479 559.771 462.195 558.963Q460.911 558.156 459.668 557.287C442.814 545.263 434.499 523.683 431.279 503.964C425.623 469.315 426.637 411.346 447.968 382.253C457.994 368.579 472.604 360.624 489.231 358.162Z" id="SvgjsPath1029" transform="matrix(0.5,0,0,0.5,-6.10352e-5,0)" inkscape:label="G"></path>
  <g id="SvgjsG1028" inkscape:label="P">
    <path fill="#25817d" d="m 149.47208,180.545 17.03526,0.003 c 9.90715,0.006 20.25327,-0.7085 28.31378,6.2995 6.45517,5.6125 8.45877,13.1765 9.07432,21.5135 0.69157,9.371 -0.48361,19.85 -6.78134,27.1875 -5.35307,6.2375 -13.10408,8.483 -20.97722,8.7645 -2.84232,0.102 -5.70671,-0.09 -8.54069,0.0925 l -0.28741,0.3745 c 0.25701,12.621 -0.0132,25.288 -0.0706,37.9125 l -17.85092,0.017 c -0.38748,-34.0455 0.29085,-68.1145 0.0849,-102.1645 z" id="SvgjsPath1027" style="stroke-width:0.495216"></path>
    <path fill="#FEFEFE" d="M338.165 394.964C347.301 394.841 360.336 393.209 368.126 399.031C372.596 402.373 374.362 408.434 375.135 413.727C376.817 425.234 376.389 439.642 369.255 449.315C361.066 457.082 348.569 455.671 338.171 455.757L338.165 394.964Z" id="SvgjsPath1026" transform="matrix(0.5 0 0 0.5 -6.10352e-05 0)" inkscape:label="path7831"></path>
  </g>
  <path fill="#25817d" d="m 106.95947,179.09 c 5.16178,-0.7635 10.97198,0.1165 15.69674,2.3485 8.99241,4.2475 13.66961,12.1685 16.95384,21.3465 -5.33149,1.964 -10.46384,4.5405 -15.60895,6.958 -1.59699,-4.7315 -3.82376,-10.4805 -8.58678,-12.7555 -2.37882,-1.136 -5.06222,-0.987 -7.47537,-0.041 -4.06949,1.5965 -6.59201,4.8545 -8.328302,8.8065 -5.08674,11.5775 -5.50757,38.1955 -0.848526,50.3095 1.423368,3.7005 3.714388,7.028 7.439558,8.604 2.83692,1.2 6.22661,1.134 9.04538,-0.097 4.82924,-2.1085 7.09034,-7.763 9.00075,-12.372 l 2.80602,1.6945 q 5.88475,3.3965 11.67091,6.964 c -1.45427,4.099 -3.21066,7.73 -5.7685,11.2465 -4.1205,5.6645 -10.45404,9.809 -17.3575,10.8115 -8.14144,1.1825 -16.341236,-0.4295 -22.968075,-5.532 -8.980639,-6.915 -12.771047,-18.0555 -14.235122,-29.051 -2.367534,-17.778 -2.247367,-42.9395 8.880582,-57.6545 4.884173,-6.4585 11.766059,-10.525 19.683345,-11.5865 z" id="SvgjsPath1025" style="stroke-width:0.495216" inkscape:label="C"></path>
</svg><style>@media (prefers-color-scheme: light) { :root { filter: none; } }
@media (prefers-color-scheme: dark) { :root { filter: none; } }
</style></svg>