<svg xmlns="http://www.w3.org/2000/svg" version="1.1" xmlns:xlink="http://www.w3.org/1999/xlink" xmlns:svgjs="http://svgjs.dev/svgjs" width="512" height="512"><svg width="512" height="512" viewBox="0 0 512 512" version="1.1" id="SvgjsSvg1429" style="" sodipodi:docname="cpgem0.svg" inkscape:version="1.2.2 (b0a8486541, 2022-12-01)" xmlns:inkscape="http://www.inkscape.org/namespaces/inkscape" xmlns:sodipodi="http://sodipodi.sourceforge.net/DTD/sodipodi-0.dtd" xmlns="http://www.w3.org/2000/svg" xmlns:svg="http://www.w3.org/2000/svg" xmlns:bx="https://boxy-svg.com">
  <sodipodi:namedview id="SvgjsSodipodi:namedview1428" pagecolor="#ffffff" bordercolor="#000000" borderopacity="0.25" inkscape:showpageshadow="2" inkscape:pageopacity="0.0" inkscape:pagecheckerboard="0" inkscape:deskcolor="#d1d1d1" showgrid="false" inkscape:zoom="1.7382812" inkscape:cx="204.51237" inkscape:cy="256.00001" inkscape:window-width="1864" inkscape:window-height="1054" inkscape:window-x="56" inkscape:window-y="0" inkscape:window-maximized="1" inkscape:current-layer="svg200"></sodipodi:namedview>
  <defs id="SvgjsDefs1427">
    <bx:export>
      <bx:file format="png" path="CPGEM0.png"></bx:file>
    </bx:export>
    <linearGradient id="SvgjsLinearGradient1426" bx:pinned="true" gradientUnits="userSpaceOnUse" gradientTransform="matrix(1, 0, 0, 1, 0, 8)">
      <stop style="stop-color: rgb(208, 135, 112);" id="SvgjsStop1425"></stop>
    </linearGradient>
    <linearGradient id="SvgjsLinearGradient1424" bx:pinned="true" gradientUnits="userSpaceOnUse">
      <stop style="stop-color: rgb(143, 188, 187);" id="SvgjsStop1423"></stop>
    </linearGradient>
    <linearGradient id="SvgjsLinearGradient1422" bx:pinned="true" gradientUnits="userSpaceOnUse">
      <stop style="stop-color: rgb(50, 55, 69);" id="SvgjsStop1421"></stop>
    </linearGradient>
    <linearGradient id="SvgjsLinearGradient1420" bx:pinned="true" gradientUnits="userSpaceOnUse">
      <stop style="stop-color: rgb(129, 161, 193);" id="SvgjsStop1419"></stop>
    </linearGradient>
    <linearGradient id="SvgjsLinearGradient1418" bx:pinned="true" gradientUnits="userSpaceOnUse">
      <stop style="stop-color: rgb(163, 190, 140);" id="SvgjsStop1417"></stop>
    </linearGradient>
  </defs>
  <g id="SvgjsG1416" transform="matrix(1.30712,0,0,1.30712,-75.2601,-23.5503)" style="display:inline;fill:#25817d;fill-opacity:0.59324336">
    <path d="m 253.014,55.592 c 2.313,1.449 22.05,29.822 25.23,34.194 5.929,8.151 12.199,16.17 17.863,24.5 -13.981,0.385 -28.063,0.02 -42.052,-0.009 l -43.43,-0.048 c 1.445,-2.455 3.32,-4.774 4.978,-7.095 l 9.996,-13.888 c 9.122,-12.562 18.141,-25.208 27.415,-37.654 z" style="fill:#25817d;fill-opacity:0.59324336" id="SvgjsPath1415"></path>
    <path d="m 265.332,53.931 58.93,0.146 c 9.464,-0.013 19.194,0.449 28.629,-0.152 -8.562,11.386 -16.904,22.931 -25.028,34.635 -6.13,8.737 -12.929,17.202 -18.676,26.179 -4.088,-5.955 -8.421,-11.693 -12.646,-17.548 z" style="fill:#25817d;fill-opacity:0.59324336" id="SvgjsPath1414"></path>
    <path d="m 153.672,53.89 c 14.652,0.425 29.338,0.186 43.995,0.195 14.457,0.008 28.943,0.27 43.394,-0.07 -2.399,3.654 -5.139,7.178 -7.689,10.735 -5.81,7.98 -11.561,16 -17.254,24.063 -3.443,4.964 -7.029,9.799 -10.549,14.705 -2.683,3.74 -5.239,7.814 -8.437,11.127 -1.689,-2.079 -3.109,-4.429 -4.69,-6.599 L 180.122,90.978 C 171.277,78.642 162.229,66.425 153.672,53.89 Z" style="fill:#25817d;fill-opacity:0.59324336" id="SvgjsPath1413"></path>
    <path d="m 142.43,56.646 c 1.929,1.356 13.413,18.621 16.224,22.541 8.39,11.702 17.074,23.203 25.336,34.996 l -69.435,0.011 -41.852,0.018 c 5.745,-5.539 12.903,-10.779 19.149,-15.838 l 29.865,-24.466 c 6.944,-5.674 14.125,-11.173 20.713,-17.262 z" style="fill:#25817d;fill-opacity:0.59324336" id="SvgjsPath1412"></path>
    <path d="m 364.242,56.109 c 4.29,4.757 11.737,9.978 16.825,14.177 l 30.245,24.894 c 7.583,6.129 15.811,12.279 22.84,19.011 -14.11,0.188 -28.236,0.065 -42.347,0.075 l -42.84,0.007 c -8.979,0.008 -17.998,-0.137 -26.971,0.177 2.309,-3.512 4.921,-6.886 7.397,-10.285 l 11.464,-15.883 14.724,-20.306 c 2.868,-3.955 5.637,-8.033 8.663,-11.867 z" style="fill:#25817d;fill-opacity:0.59324336" id="SvgjsPath1411"></path>
  </g>
  <g id="SvgjsG1410" transform="matrix(1.30712,0,0,1.30712,-75.449,-23.5503)" style="display:inline;fill:#d08770;fill-opacity:0.69778091">
    <path d="m 220.957,260.423 63.463,-0.059 -23.855,74.155 c -2.464,7.917 -4.845,15.86 -7.144,23.827 -3.002,-8.307 -5.417,-16.839 -8.224,-25.214 z" style="fill:#d08770;fill-opacity:0.69778091" id="SvgjsPath1409"></path>
    <path d="m 109.58,260.309 c 11.197,0.527 22.508,0.253 33.722,0.277 l 66.443,-0.118 c 2.728,9.971 6.273,19.763 9.521,29.574 l 17.392,52.605 c 2.05,6.306 4.462,12.574 6.232,18.957 -2.537,-1.448 -6.988,-5.413 -9.525,-7.349 -8.093,-6.11 -16.148,-12.269 -24.167,-18.476 -20.847,-15.943 -41.799,-31.747 -62.856,-47.412 -8.682,-6.415 -17.122,-13.144 -25.757,-19.62 -2.163,-1.622 -9.495,-6.396 -10.801,-7.922 -0.12,-0.141 -0.136,-0.344 -0.204,-0.516 z" style="fill:#d08770;fill-opacity:0.69778091" id="SvgjsPath1408"></path>
    <path d="m 295.625,260.487 60.291,-0.045 c 13.87,10e-4 27.784,0.228 41.648,-0.082 -2.044,1.649 -4.248,3.122 -6.34,4.712 -4.916,3.799 -9.864,7.557 -14.843,11.273 l -27.805,21.212 c -8.695,6.564 -17.491,12.978 -26.072,19.693 l -39.609,29.494 -11.185,8.313 c -2.581,1.917 -5.278,3.765 -7.637,5.953 1.938,-5.447 3.335,-11.14 5.105,-16.653 l 18.691,-59.095 c 2.605,-8.233 4.877,-16.638 7.756,-24.775 z" style="fill:#d08770;fill-opacity:0.69778091" id="SvgjsPath1407"></path>
  </g>
  <text style="font-weight:900;font-size:96.2473px;font-family:'Fira Sans';letter-spacing:6.8px;white-space:pre;display:inline;fill:#25817d" id="SvgjsText1406" transform="matrix(1.30712,0,0,1.08055,-57.051,24.1911)" x="78.711998" y="212.032" svgjs:data="{&quot;leading&quot;:&quot;1.3&quot;}">CPGE</text>
  <text style="font-weight:900;font-size:104px;font-family:'Fira Sans';white-space:pre;display:inline;fill:#d08770;fill-opacity:1" x="377.896" y="253.145" id="SvgjsText1405" svgjs:data="{&quot;leading&quot;:&quot;1.3&quot;}">M</text>
</svg><style>@media (prefers-color-scheme: light) { :root { filter: none; } }
@media (prefers-color-scheme: dark) { :root { filter: none; } }
</style></svg>