<?xml version="1.0" encoding="UTF-8" standalone="no"?>
<svg
   width="512"
   height="512"
   viewBox="0 0 512 512"
   version="1.1"
   id="svg200"
   style=""
   sodipodi:docname="cpgem3.svg"
   inkscape:version="1.2.2 (b0a8486541, 2022-12-01)"
   inkscape:export-filename="cpgem3.png"
   inkscape:export-xdpi="96"
   inkscape:export-ydpi="96"
   xmlns:inkscape="http://www.inkscape.org/namespaces/inkscape"
   xmlns:sodipodi="http://sodipodi.sourceforge.net/DTD/sodipodi-0.dtd"
   xmlns="http://www.w3.org/2000/svg"
   xmlns:svg="http://www.w3.org/2000/svg"
   xmlns:bx="https://boxy-svg.com">
  <sodipodi:namedview
     id="namedview54"
     pagecolor="#ffffff"
     bordercolor="#000000"
     borderopacity="0.25"
     inkscape:showpageshadow="2"
     inkscape:pageopacity="0.0"
     inkscape:pagecheckerboard="0"
     inkscape:deskcolor="#d1d1d1"
     showgrid="false"
     inkscape:zoom="1.2291505"
     inkscape:cx="175.32435"
     inkscape:cy="237.56245"
     inkscape:window-width="1864"
     inkscape:window-height="1054"
     inkscape:window-x="56"
     inkscape:window-y="0"
     inkscape:window-maximized="1"
     inkscape:current-layer="svg200" />
  <defs
     id="defs20">
    <bx:export>
      <bx:file
         format="png"
         href="#object-0"
         path="Untitled 2.png" />
      <bx:file
         format="png"
         path="test.png" />
    </bx:export>
    <clipPath
       clipPathUnits="userSpaceOnUse"
       id="clipPath1432">
      <rect
         x="-3.6383e-08"
         y="-162.99619"
         width="512"
         height="512.00006"
         style="display:inline;fill:#c7630b;stroke:#000000;stroke-width:0px"
         id="rect1434"
         clip-path="none"
         inkscape:label="rect3"
         mask="none" />
    </clipPath>
  </defs>
  <rect
     x="-5.0000006e-07"
     y="349.73264"
     width="512"
     height="178.99858"
     style="display:inline;fill:#cdd3d8;fill-opacity:1;stroke:#000000;stroke-width:0px"
     id="rect1077"
     clip-path="none"
     inkscape:label="rect3"
     mask="none" />
  <ellipse
     style="display:inline;fill:#c7630b;fill-opacity:1;stroke:#000000;stroke-width:0px"
     cx="256"
     cy="256.78699"
     rx="251.98543"
     ry="255.213"
     id="ellipse1079"
     inkscape:label="disk1" />
  <rect
     x="-3.6383e-08"
     y="8.8817842e-16"
     width="512"
     height="345.73267"
     style="display:inline;fill:#25817d;fill-opacity:1;stroke:#000000;stroke-width:0px"
     id="rect995"
     clip-path="none"
     inkscape:label="rect3"
     mask="none" />
  <ellipse
     style="display:inline;fill:#cdd3d8;stroke:#000000;stroke-width:0px"
     cx="260.487"
     cy="256.78699"
     rx="245.21599"
     ry="255.213"
     id="ellipse1032"
     inkscape:label="disk1"
     clip-path="url(#clipPath1432)"
     transform="matrix(1.0406064,0,0,0.99743346,-15.064426,-1.1042687)" />
  <g
     style="display:inline"
     transform="matrix(0.754631,0,0,0.754631,69.0212,107.279)"
     id="g41"
     inkscape:label="icons">
    <g
       transform="matrix(3.3473,0,0,3.25755,164.254,324.791)"
       id="g90">
      <path
         fill="#00838f"
         d="m 22.55,18.294 c 1.264,1.867 4.069,1.642 5.031,-0.398 C 28.678,15.573 30.052,13.28 34,14 c 2.201,0.402 3,3 3,3 l 11,2.003 c 0,0 -9.312,-0.307 -11.382,0.727 0,0 -0.285,2.32 -3.858,5.571 -1.082,0.985 0.384,7.416 -5.363,9.593 -6.879,3.164 -6.994,1.64 -16.256,7.106 0,0 1.689,-1.648 -1.454,-1.419 0,0 3.436,-1.947 -0.851,-1.249 0,0 2.632,-1.615 -0.511,-2.429 0,0 7.143,-1.867 8.948,-3.444 0.462,-0.404 0.837,-1.716 1.155,-2.823 l -3.539,3.58 c 0,0 0,0 0,-1.035 0,-1.035 -1.801,1.657 -1.801,1.657 L 12.82,33.181 9.715,35.88 c 0,0 -0.271,-1.388 0.379,-2.574 L 6.61,35.251 c 0,0 0.497,-2.459 1.591,-3.123 l -2.63,1.224 c 0,0 0.195,-1.68 1.04,-2.24 l -2.299,0.779 c 0,0 0.007,-1.287 1.041,-2.322 l -1.807,0.634 c 0,0 0.359,-1.783 1.137,-2.035 l -1.707,0.316 c 0,0 0.3,-1.696 1.551,-2.321 l -2.289,0.45 c 0,0 0.35,-1.851 2.088,-2.526 L 1.7,24.164 c 0,0 1.351,-1.963 2.739,-2.163 l -3.051,0.138 c 0,0 1.163,-1.613 2.076,-1.851 L 1,20.187 c 0,0 0.725,-1.301 1.851,-1.663 L 1,18.436 c 0,0 0.588,-1.238 1.688,-1.563 L 1,16.523 c 0,0 1.501,-1.426 2.489,-1.413 L 1.138,14.66 c 0,0 1.025,-1.563 3.151,-1.463 L 2.063,12.159 c 0,0 1.413,-1.088 3.639,-0.65 L 3.213,10.02 c 0,0 1.576,-1.075 3.727,-0.263 L 4.426,7.807 c 0,0 1.163,-0.625 2.288,-0.163 L 6,5 c 8.889,3.232 13.79,9.217 16.55,13.294 z"
         id="path44" />
      <circle
         cx="32.778999"
         cy="17"
         r="1.061"
         fill="#00c853"
         id="circle46" />
      <circle
         cx="32.778999"
         cy="17"
         r="1.061"
         fill="none"
         stroke="#ffffff"
         stroke-linecap="round"
         stroke-linejoin="round"
         stroke-miterlimit="10"
         stroke-width="0.25"
         id="circle48" />
      <path
         fill="none"
         stroke="#ffffff"
         stroke-linecap="round"
         stroke-linejoin="round"
         stroke-miterlimit="10"
         stroke-width="0.25"
         d="m 37,17 c 0,0 -1.997,0.64 -3.16,0.414"
         id="path50" />
      <path
         fill="none"
         stroke="#ffffff"
         stroke-linecap="round"
         stroke-linejoin="round"
         stroke-miterlimit="10"
         stroke-width="0.25"
         d="m 6.715,7.644 c 0,0 6.755,3.804 8.183,5.417"
         id="path52" />
      <path
         fill="none"
         stroke="#ffffff"
         stroke-linecap="round"
         stroke-linejoin="round"
         stroke-miterlimit="10"
         stroke-width="0.25"
         d="m 6.94,9.757 c 0,0 7.037,3.408 8.401,5.335"
         id="path54" />
      <path
         fill="none"
         stroke="#ffffff"
         stroke-linecap="round"
         stroke-linejoin="round"
         stroke-miterlimit="10"
         stroke-width="0.25"
         d="m 5.702,11.508 c 0,0 5.64,1.302 9.195,5.274"
         id="path56" />
      <path
         fill="none"
         stroke="#ffffff"
         stroke-linecap="round"
         stroke-linejoin="round"
         stroke-miterlimit="10"
         stroke-width="0.25"
         d="m 4.289,13.196 c 0,0 6.045,0.91 10.101,5.344"
         id="path58" />
      <path
         fill="none"
         stroke="#ffffff"
         stroke-linecap="round"
         stroke-linejoin="round"
         stroke-miterlimit="10"
         stroke-width="0.25"
         d="m 3.489,15.11 c 0,0 5.964,0.757 10.273,4.688"
         id="path60" />
      <path
         fill="none"
         stroke="#ffffff"
         stroke-linecap="round"
         stroke-linejoin="round"
         stroke-miterlimit="10"
         stroke-width="0.25"
         d="m 2.688,16.873 c 0,0 4.343,-0.912 10.664,4.466"
         id="path62" />
      <path
         fill="none"
         stroke="#ffffff"
         stroke-linecap="round"
         stroke-linejoin="round"
         stroke-miterlimit="10"
         stroke-width="0.25"
         d="m 2.851,18.524 c 0,0 4.715,-0.644 9.527,3.696"
         id="path64" />
      <path
         fill="none"
         stroke="#ffffff"
         stroke-linecap="round"
         stroke-linejoin="round"
         stroke-miterlimit="10"
         stroke-width="0.25"
         d="m 3.464,20.287 c 0,0 3.609,-0.803 7.677,2.53"
         id="path66" />
      <path
         fill="none"
         stroke="#ffffff"
         stroke-linecap="round"
         stroke-linejoin="round"
         stroke-miterlimit="10"
         stroke-width="0.25"
         d="m 4.439,22 c 0,0 2.75,-0.458 5.328,1.61"
         id="path68" />
      <path
         fill="none"
         stroke="#ffffff"
         stroke-linecap="round"
         stroke-linejoin="round"
         stroke-miterlimit="10"
         stroke-width="0.25"
         d="m 4.326,24.089 c 0,0 1.188,-1.177 4.298,0.17"
         id="path70" />
      <path
         fill="none"
         stroke="#ffffff"
         stroke-linecap="round"
         stroke-linejoin="round"
         stroke-miterlimit="10"
         stroke-width="0.25"
         d="m 4.527,26.164 c 0,0 1.045,-1.266 3.944,-0.65"
         id="path72" />
      <path
         fill="none"
         stroke="#ffffff"
         stroke-linecap="round"
         stroke-linejoin="round"
         stroke-miterlimit="10"
         stroke-width="0.25"
         d="m 4.683,28.169 c 0,0 1.664,-2.175 5.751,-1.559"
         id="path74" />
      <path
         fill="none"
         stroke="#ffffff"
         stroke-linecap="round"
         stroke-linejoin="round"
         stroke-miterlimit="10"
         stroke-width="0.25"
         d="m 5.353,29.569 c 0,0 1.951,-2.114 5.787,-1.863"
         id="path76" />
      <path
         fill="none"
         stroke="#ffffff"
         stroke-linecap="round"
         stroke-linejoin="round"
         stroke-miterlimit="10"
         stroke-width="0.25"
         d="m 6.611,31.112 c 0,0 1.677,-2.63 5.603,-2.699"
         id="path78" />
      <path
         fill="none"
         stroke="#ffffff"
         stroke-linecap="round"
         stroke-linejoin="round"
         stroke-miterlimit="10"
         stroke-width="0.25"
         d="m 8.202,32.128 c 0,0 0.721,-2.346 4.547,-2.757"
         id="path80" />
      <path
         fill="none"
         stroke="#ffffff"
         stroke-linecap="round"
         stroke-linejoin="round"
         stroke-miterlimit="10"
         stroke-width="0.25"
         d="m 10.095,33.307 c 0,0 1.962,-2.661 3.95,-3.028"
         id="path82" />
      <path
         fill="none"
         stroke="#ffffff"
         stroke-linecap="round"
         stroke-linejoin="round"
         stroke-miterlimit="10"
         stroke-width="0.25"
         d="m 12.82,33.182 c 0,0 0.966,-2.143 2.479,-2.069"
         id="path84" />
      <path
         fill="none"
         stroke="#ffffff"
         stroke-linecap="round"
         stroke-linejoin="round"
         stroke-miterlimit="10"
         stroke-width="0.25"
         d="m 31.871,17.692 c 0,0 -0.767,0.278 -1.584,0.148 0,0 0.119,0.781 -0.884,1.319 0,0 1.133,1.337 -0.576,1.82 0,0 -0.13,0.724 -0.891,0.984 0,0 -0.019,1.207 1.337,0.947 0,0 -0.111,1.456 1.467,1.09 0,0 0.546,1.626 1.898,1.456"
         id="path86" />
      <path
         fill="none"
         stroke="#ffffff"
         stroke-linecap="round"
         stroke-linejoin="round"
         stroke-miterlimit="10"
         stroke-width="0.25"
         d="m 36.618,19.73 c 0,0 -1.656,-1.038 -1.338,-2.342"
         id="path88" />
    </g>
    <g
       transform="matrix(3.04092,0,0,2.95938,18.9382,330.318)"
       id="g96"
       style="display:inline"
       inkscape:label="Python">
      <path
         fill="#0277bd"
         d="m 24.047,5 c -1.555,0.005 -2.633,0.142 -3.936,0.367 -3.848,0.67 -4.549,2.077 -4.549,4.67 V 14 h 9 v 2 H 15.22 10.87 c -2.636,0 -4.943,1.242 -5.674,4.219 -0.826,3.417 -0.863,5.557 0,9.125 C 5.851,32.005 7.294,34 9.931,34 h 3.632 V 28.896 C 13.563,25.93 16.249,23 19.327,23 h 7.236 c 2.523,0 5,-1.862 5,-4.377 V 10.037 C 31.563,7.598 29.804,5.774 27.345,5.365 27.406,5.359 25.589,4.994 24.047,5 Z m -4.984,4 c 0.821,0 1.5,0.677 1.5,1.502 0,0.833 -0.679,1.498 -1.5,1.498 -0.837,0 -1.5,-0.664 -1.5,-1.498 C 17.563,9.68 18.226,9 19.063,9 Z"
         id="path92" />
      <path
         fill="#ffc107"
         d="m 23.078,43 c 1.555,-0.005 2.633,-0.142 3.936,-0.367 3.848,-0.67 4.549,-2.077 4.549,-4.67 V 34 h -9 v -2 h 9.343 4.35 c 2.636,0 4.943,-1.242 5.674,-4.219 0.826,-3.417 0.863,-5.557 0,-9.125 C 41.274,15.995 39.831,14 37.194,14 h -3.632 v 5.104 C 33.562,22.07 30.876,25 27.798,25 h -7.236 c -2.523,0 -5,1.862 -5,4.377 v 8.586 c 0,2.439 1.759,4.263 4.218,4.672 -0.061,0.006 1.756,0.371 3.298,0.365 z m 4.985,-4 c -0.821,0 -1.5,-0.677 -1.5,-1.502 0,-0.833 0.679,-1.498 1.5,-1.498 0.837,0 1.5,0.664 1.5,1.498 0,0.822 -0.664,1.502 -1.5,1.502 z"
         id="path94" />
    </g>
    <g
       transform="matrix(3.22959,0,0,3.143,331.237,325.911)"
       id="g134"
       inkscape:label="Giithub"
       style="display:inline">
      <path
         fill="#ffffff"
         d="M 41,24 C 41,33.4 33.4,41 24,41 14.6,41 7,33.4 7,24 7,14.6 14.6,7 24,7 c 9.4,0 17,7.6 17,17 z"
         id="path124"
         style="display:inline"
         inkscape:label="path124" />
      <path
         fill="#455a64"
         d="m 21,41 v -5.5 c 0,-0.3 0.2,-0.5 0.5,-0.5 0.3,0 0.5,0.2 0.5,0.5 V 41 h 2 v -6.5 c 0,-0.3 0.2,-0.5 0.5,-0.5 0.3,0 0.5,0.2 0.5,0.5 V 41 h 2 v -5.5 c 0,-0.3 0.2,-0.5 0.5,-0.5 0.3,0 0.5,0.2 0.5,0.5 V 41 h 1.8 C 30,40.7 30,40.4 30,39.9 V 36 c 0,-2.2 -1.9,-5.2 -4.3,-5.2 h -2.5 c -2.3,0 -4.3,3.1 -4.3,5.2 v 3.9 c 0,0.4 0.1,0.8 0.2,1.1 z M 40.1,26.4 c 0,0 0,0 0,0 0,0 -1.3,-0.4 -2.4,-0.4 0,0 -0.1,0 -0.1,0 -1.1,0 -2.9,0.3 -2.9,0.3 -0.1,0 -0.1,0 -0.1,-0.1 0,-0.1 0,-0.1 0.1,-0.1 0.1,0 2,-0.3 3.1,-0.3 1.1,0 2.4,0.4 2.5,0.4 0.1,0 0.1,0.1 0.1,0.2 -0.2,-0.1 -0.2,0 -0.3,0 z m -0.3,0.8 c 0,0 0,0 0,0 0,0 -1.4,-0.4 -2.6,-0.4 -0.9,0 -3,0.2 -3.1,0.2 -0.1,0 -0.1,0 -0.1,-0.1 0,-0.1 0,-0.1 0.1,-0.1 0.1,0 2.2,-0.2 3.1,-0.2 1.3,0 2.6,0.4 2.6,0.4 0.1,0 0.1,0.1 0.1,0.2 0,-0.1 0,0 -0.1,0 z m -32,-0.8 c -0.1,0 -0.1,0 -0.1,-0.1 0,-0.1 0,-0.1 0.1,-0.2 0.8,-0.2 2.4,-0.5 3.3,-0.5 0.8,0 3.5,0.2 3.6,0.2 0.1,0 0.1,0.1 0.1,0.1 0,0.1 -0.1,0.1 -0.1,0.1 0,0 -2.7,-0.2 -3.5,-0.2 -1.1,0.2 -2.6,0.4 -3.4,0.6 0,0 0,0 0,0 z m 0.4,1.5 c 0,0 -0.1,0 -0.1,-0.1 0,-0.1 0,-0.1 0,-0.2 0.1,0 1.4,-0.8 2.9,-1 1.3,-0.2 4,0.1 4.2,0.1 0.1,0 0.1,0.1 0.1,0.1 0,0.1 -0.1,0.1 -0.1,0.1 0,0 0,0 0,0 0,0 -2.8,-0.3 -4.1,-0.1 -1.5,0.3 -2.9,1.1 -2.9,1.1 0,0 0,0 0,0 z"
         id="path126"
         style="display:inline" />
      <path
         fill="#455a64"
         d="m 14.2,23.5 c 0,-4.4 4.6,-8.5 10.3,-8.5 5.7,0 10.3,4 10.3,8.5 0,4.5 -3.3,7.5 -10.3,7.5 -7,0 -10.3,-3.1 -10.3,-7.5 z"
         id="path128"
         style="display:inline" />
      <path
         fill="#455a64"
         d="m 28.6,16.3 c 0,0 1.7,-2.3 4.8,-2.3 1.2,1.2 0.4,4.8 0,5.8 z m -8.2,0 c 0,0 -1.7,-2.3 -4.8,-2.3 -1.2,1.2 -0.4,4.8 0,5.8 z m -0.3,19.6 c 0,0 -2.3,0 -2.8,0 -1.2,0 -2.3,-0.5 -2.8,-1.5 -0.6,-1.1 -1.1,-2.3 -2.6,-3.3 -0.3,-0.2 -0.1,-0.4 0.4,-0.4 0.5,0.1 1.4,0.2 2.1,1.1 0.7,0.9 1.5,2 2.8,2 1.3,0 2.7,0 3.5,-0.9 z"
         id="path130"
         style="display:inline" />
      <path
         fill="#00bcd4"
         d="M 24,4 C 13,4 4,13 4,24 4,35 13,44 24,44 35,44 44,35 44,24 44,13 35,4 24,4 Z m 0,36 C 15.2,40 8,32.8 8,24 8,15.2 15.2,8 24,8 c 8.8,0 16,7.2 16,16 0,8.8 -7.2,16 -16,16 z"
         id="path132"
         style="display:inline" />
    </g>
  </g>
  <g
     transform="translate(20.2619,11.3493)"
     id="g51"
     style="display:inline"
     inkscape:label="text">
    <g
       id="g49">
      <g
         transform="matrix(1.20784,0,0,1.20784,-33.309,-45.1745)"
         id="g47">
        <text
           style="font-weight:900;font-size:120px;font-family:'Fira Sans';white-space:pre;fill:#25817d"
           x="33.603001"
           y="250.064"
           id="text43">CPGE</text>
        <text
           style="font-weight:900;font-size:120px;font-family:'Fira Sans';white-space:pre;fill:#c7630b"
           x="323.51599"
           y="250.064"
           id="text45">M</text>
      </g>
    </g>
  </g>
</svg>
