<svg xmlns="http://www.w3.org/2000/svg" version="1.1" xmlns:xlink="http://www.w3.org/1999/xlink" xmlns:svgjs="http://svgjs.dev/svgjs" width="512mm" height="512mm"><svg width="512mm" height="512mm" viewBox="0 0 512 512" version="1.1" id="SvgjsSvg1043" inkscape:version="1.2.2 (b0a8486541, 2022-12-01)" sodipodi:docname="cpgem2.svg" inkscape:export-filename="cpgem2.png" inkscape:export-xdpi="25.4" inkscape:export-ydpi="25.4" xmlns:inkscape="http://www.inkscape.org/namespaces/inkscape" xmlns:sodipodi="http://sodipodi.sourceforge.net/DTD/sodipodi-0.dtd" xmlns="http://www.w3.org/2000/svg" xmlns:svg="http://www.w3.org/2000/svg">
  <sodipodi:namedview id="SvgjsSodipodi:namedview1042" pagecolor="#ffffff" bordercolor="#000000" borderopacity="0.25" inkscape:showpageshadow="2" inkscape:pageopacity="0.0" inkscape:pagecheckerboard="0" inkscape:deskcolor="#d1d1d1" inkscape:document-units="px" showgrid="false" inkscape:zoom="0.34722729" inkscape:cx="623.5109" inkscape:cy="967.66588" inkscape:window-width="1864" inkscape:window-height="1054" inkscape:window-x="56" inkscape:window-y="0" inkscape:window-maximized="1" inkscape:current-layer="layer1"></sodipodi:namedview>
  <defs id="SvgjsDefs1041">
    <linearGradient id="SvgjsLinearGradient1040" inkscape:swatch="solid">
      <stop style="stop-color:#32b1a1;stop-opacity:1;" offset="0" id="SvgjsStop1039"></stop>
    </linearGradient>
  </defs>
  <g inkscape:label="Layer 1" inkscape:groupmode="layer" id="SvgjsG1038">
    <text xml:space="preserve" style="display:inline;font-weight:800;font-size:239.505px;font-family:'Fira Sans';-inkscape-font-specification:'Fira Sans, Ultra-Bold';fill:#32b1a1;fill-opacity:1;stroke-width:2.80669" x="470.23187" y="281.09973" id="SvgjsText1037" transform="scale(0.77188283,1.2955334)" svgjs:data="{&quot;leading&quot;:&quot;1.3&quot;}"><tspan sodipodi:role="line" id="SvgjsTspan1036" style="fill:#32b1a1;fill-opacity:1;stroke-width:2.80669" x="470.23187" y="281.09973">M</tspan></text>
    <text xml:space="preserve" style="display:inline;font-style:normal;font-variant:normal;font-weight:800;font-stretch:normal;font-size:223.403px;font-family:'Fira Sans';-inkscape-font-specification:'Fira Sans, Ultra-Bold';font-variant-ligatures:normal;font-variant-caps:normal;font-variant-numeric:normal;font-variant-east-asian:normal;fill:#32b1a1;fill-opacity:1;stroke-width:2.61801" x="251.15219" y="261.00363" id="SvgjsText1035" transform="scale(0.71629329,1.3960762)" svgjs:data="{&quot;leading&quot;:&quot;1.3&quot;}"><tspan sodipodi:role="line" id="SvgjsTspan1034" style="font-style:normal;font-variant:normal;font-weight:800;font-stretch:normal;font-size:223.403px;font-family:'Fira Sans';-inkscape-font-specification:'Fira Sans, Ultra-Bold';font-variant-ligatures:normal;font-variant-caps:normal;font-variant-numeric:normal;font-variant-east-asian:normal;fill:#32b1a1;fill-opacity:1;stroke-width:2.61801" x="251.15219" y="261.00363"><tspan style="fill:#2c5aa0;fill-opacity:1;stroke-width:2.61801" id="SvgjsTspan1033">GE</tspan></tspan></text>
    <text xml:space="preserve" style="font-style:italic;font-weight:500;font-size:164.415px;font-family:'Fira Sans';-inkscape-font-specification:'Fira Sans, Medium Italic';display:inline;fill:#2c5aa0;stroke-width:2.41777" x="33.357155" y="307.37955" id="SvgjsText1032" transform="scale(0.83704023,1.1946857)" svgjs:data="{&quot;leading&quot;:&quot;1.3&quot;}"><tspan sodipodi:role="line" id="SvgjsTspan1031" style="font-style:italic;font-variant:normal;font-weight:800;font-stretch:normal;font-size:154.736px;font-family:'Fira Sans';-inkscape-font-specification:'Fira Sans, Ultra-Bold Italic';font-variant-ligatures:normal;font-variant-caps:normal;font-variant-numeric:normal;font-variant-east-asian:normal;fill:#2c5aa0;stroke-width:2.41777" x="33.357155" y="307.37955">CP</tspan></text>
    <g id="SvgjsG1030" style="display:inline" transform="translate(-4.2333335)">
      <g id="SvgjsG1029" transform="translate(-2.6458334)">
        <path style="fill:#37c4b3;stroke-width:0.480206" d="m 116.59355,236.69833 c -1.90264,0 -3.70858,-0.77202 -4.92063,-2.10562 L 53.385682,170.51274 c -1.786701,-1.96397 -1.951751,-4.75643 -0.407564,-6.88255 L 73.78009,134.98047 c 1.180163,-1.62601 3.183556,-2.60481 5.327698,-2.60481 h 74.972042 c 2.14465,0 4.14653,0.9788 5.32922,2.60481 l 20.79995,28.64972 c 1.54469,2.12657 1.37913,4.91858 -0.40757,6.88255 l -58.28723,64.07952 c -1.21207,1.33405 -3.01749,2.10607 -4.92065,2.10607 z" id="SvgjsPath1028"></path>
        <g id="SvgjsG1027" transform="matrix(0.50629084,0,0,0.45546603,-34.408189,132.37566)" style="display:inline">
          <path style="fill:#53e7d3" d="m 218.484,1.406 c -1.911,0.983 -3.578,2.447 -4.795,4.312 L 172.6,68.622 c -1.555,2.381 -2.229,5.145 -2.049,7.856 h 96.97 z" id="SvgjsPath1026"></path>
          <path style="fill:#53e7d3" d="m 328.979,76.476 h 96.973 c 0.179,-2.71 -0.492,-5.473 -2.05,-7.856 L 382.814,5.718 C 381.597,3.853 379.932,2.39 378.019,1.406 Z" id="SvgjsPath1025"></path>
        </g>
        <polygon style="fill:#53e7d3" points="348.278,76.476 248.534,76.476 298.251,229.072 " id="SvgjsPolygon1024" transform="matrix(0.50629084,0,0,0.45546603,-34.408189,132.37566)"></polygon>
        <polygon style="fill:#b9f5ed" points="298.178,0 248.224,76.476 348.278,76.476 298.323,0 " id="SvgjsPolygon1023" transform="matrix(0.50629084,0,0,0.45546603,-34.408189,132.37566)"></polygon>
        <path style="opacity:0.1;stroke-width:0.480206;enable-background:new" d="m 70.382372,170.51274 c -1.7867,-1.96397 -1.952258,-4.75643 -0.408577,-6.88255 L 90.77678,134.98047 c 1.180164,-1.62601 3.184062,-2.60481 5.327697,-2.60481 H 79.107281 c -2.144141,0 -4.147533,0.9788 -5.327697,2.60481 l -20.801973,28.64972 c -1.544187,2.12657 -1.379137,4.91858 0.407564,6.88255 l 58.287745,64.07997 c 1.21205,1.3336 -41.290548,-64.07997 -41.290548,-64.07997 z" id="SvgjsPath1022"></path>
      </g>
    </g>
  </g>
</svg><style>@media (prefers-color-scheme: light) { :root { filter: none; } }
@media (prefers-color-scheme: dark) { :root { filter: none; } }
</style></svg>